<?xml version="1.0" encoding="iso-8859-1"?>
<!-- Generator: Adobe Illustrator 17.1.0, SVG Export Plug-In . SVG Version: 6.00 Build 0)  -->
<!DOCTYPE svg PUBLIC "-//W3C//DTD SVG 1.1//EN" "http://www.w3.org/Graphics/SVG/1.1/DTD/svg11.dtd">
<svg version="1.1" id="Capa_1" xmlns="http://www.w3.org/2000/svg" xmlns:xlink="http://www.w3.org/1999/xlink" x="0px" y="0px"
	 viewBox="0 0 442 442" style="enable-background:new 0 0 442 442;" xml:space="preserve">
<g fill="#273943">
	<path d="M432,327.295H59.468V49.539C59.468,22.224,37.277,0,10,0C4.477,0,0,4.478,0,10s4.477,10,10,10
		c16.249,0,29.468,13.251,29.468,29.539v287.756c0,5.522,4.477,10,10,10H432c5.523,0,10-4.478,10-10S437.523,327.295,432,327.295z"
		/>
	<path d="M89.468,307.241H392c5.523,0,10-4.478,10-10v-82.603c0-5.522-4.477-10-10-10H89.468c-5.523,0-10,4.478-10,10v82.603
		C79.468,302.764,83.945,307.241,89.468,307.241z M316.111,287.241v-21.302H382v21.302H316.111z M382,245.939h-65.889v-21.301H382
		V245.939z M99.468,224.639h196.644v62.603H99.468V224.639z"/>
	<path d="M89.468,184.584H392c5.523,0,10-4.478,10-10V91.981c0-5.522-4.477-10-10-10H89.468c-5.523,0-10,4.478-10,10v82.603
		C79.468,180.106,83.945,184.584,89.468,184.584z M316.111,164.584v-21.301H382v21.301H316.111z M382,123.283h-65.889v-21.302H382
		V123.283z M99.468,101.981h196.644v62.603H99.468V101.981z"/>
	<path d="M101.898,357.619c-23.264,0-42.19,18.927-42.19,42.19S78.634,442,101.898,442s42.19-18.927,42.19-42.19
		S125.162,357.619,101.898,357.619z M101.898,422c-12.236,0-22.19-9.955-22.19-22.19s9.955-22.19,22.19-22.19
		s22.19,9.955,22.19,22.19S114.134,422,101.898,422z"/>
	<path d="M379.57,357.619c-23.264,0-42.19,18.927-42.19,42.19S356.306,442,379.57,442s42.19-18.927,42.19-42.19
		S402.833,357.619,379.57,357.619z M379.57,422c-12.236,0-22.19-9.955-22.19-22.19s9.955-22.19,22.19-22.19s22.19,9.955,22.19,22.19
		S391.806,422,379.57,422z"/>
</g>
<g>
</g>
<g>
</g>
<g>
</g>
<g>
</g>
<g>
</g>
<g>
</g>
<g>
</g>
<g>
</g>
<g>
</g>
<g>
</g>
<g>
</g>
<g>
</g>
<g>
</g>
<g>
</g>
<g>
</g>
</svg>
