<?xml version="1.0" encoding="iso-8859-1"?>
<!-- Generator: Adobe Illustrator 17.1.0, SVG Export Plug-In . SVG Version: 6.00 Build 0)  -->
<!DOCTYPE svg PUBLIC "-//W3C//DTD SVG 1.1//EN" "http://www.w3.org/Graphics/SVG/1.1/DTD/svg11.dtd">
<svg version="1.1" id="Capa_1" xmlns="http://www.w3.org/2000/svg" xmlns:xlink="http://www.w3.org/1999/xlink" x="0px" y="0px"
	 viewBox="0 0 442 442" style="enable-background:new 0 0 442 442;" xml:space="preserve">
<path fill="#273943" d="M424.762,232.974c-9.306-11.553-21.794-20.251-35.725-25.002c-2.1-32.894-15.993-63.521-39.584-86.916
	C324.056,95.871,290.369,82,254.599,82c-46.188,0-88.986,23.683-113.642,62.342c-5.403-1.481-10.981-2.228-16.668-2.228
	c-29.219,0-54.435,20.189-61.297,47.982C26.11,200.516,0,234.521,0,273.416C0,321.158,38.841,360,86.584,360h277.321
	C406.967,360,442,324.966,442,281.904C442,264.152,435.878,246.775,424.762,232.974z M363.905,340H86.584
	C49.87,340,20,310.13,20,273.416c0-31.685,22.521-59.147,53.552-65.301c4.207-0.834,7.414-4.259,7.97-8.511
	c2.797-21.372,21.183-37.489,42.767-37.489c5.937,0,11.695,1.189,17.115,3.534c4.727,2.046,10.232,0.167,12.723-4.339
	C174.352,124.727,212.85,102,254.599,102c62.688,0,114.148,50.993,114.713,113.671c0.042,4.62,3.243,8.61,7.745,9.652
	C403.519,231.447,422,254.714,422,281.904C422,313.938,395.938,340,363.905,340z"/>
<g>
</g>
<g>
</g>
<g>
</g>
<g>
</g>
<g>
</g>
<g>
</g>
<g>
</g>
<g>
</g>
<g>
</g>
<g>
</g>
<g>
</g>
<g>
</g>
<g>
</g>
<g>
</g>
<g>
</g>
</svg>
