<?xml version="1.0" encoding="iso-8859-1"?>
<!-- Generator: Adobe Illustrator 17.1.0, SVG Export Plug-In . SVG Version: 6.00 Build 0)  -->
<!DOCTYPE svg PUBLIC "-//W3C//DTD SVG 1.1//EN" "http://www.w3.org/Graphics/SVG/1.1/DTD/svg11.dtd">
<svg version="1.1" id="Capa_1" xmlns="http://www.w3.org/2000/svg" xmlns:xlink="http://www.w3.org/1999/xlink" x="0px" y="0px"
	 viewBox="0 0 419.731 419.731" style="enable-background:new 0 0 419.731 419.731;" xml:space="preserve">
<g fill="#273943">
	<path d="M133.243,225.75h149c5.523,0,10-4.477,10-10s-4.477-10-10-10h-149c-5.523,0-10,4.477-10,10S127.72,225.75,133.243,225.75z"
		/>
	<path d="M144.45,252.826H95.989c-5.523,0-10,4.477-10,10c0,5.523,4.477,10,10,10h48.461c5.523,0,10-4.477,10-10
		C154.45,257.303,149.973,252.826,144.45,252.826z"/>
	<path d="M234.096,252.826h-48.461c-5.523,0-10,4.477-10,10c0,5.523,4.477,10,10,10h48.461c5.523,0,10-4.477,10-10
		C244.096,257.303,239.619,252.826,234.096,252.826z"/>
	<path d="M323.743,252.826h-48.461c-5.523,0-10,4.477-10,10c0,5.523,4.477,10,10,10h48.461c5.523,0,10-4.477,10-10
		C333.743,257.303,329.266,252.826,323.743,252.826z"/>
	<path d="M409.731,36.866H10c-5.523,0-10,4.477-10,10v326c0,5.523,4.477,10,10,10h399.731c5.523,0,10-4.477,10-10v-326
		C419.731,41.343,415.254,36.866,409.731,36.866z M399.731,95.71H353.37V56.866h46.362V95.71z M333.37,56.866V95.71H20V56.866
		H333.37z M20,362.866V115.71h379.731v247.155H20z"/>
</g>
<g>
</g>
<g>
</g>
<g>
</g>
<g>
</g>
<g>
</g>
<g>
</g>
<g>
</g>
<g>
</g>
<g>
</g>
<g>
</g>
<g>
</g>
<g>
</g>
<g>
</g>
<g>
</g>
<g>
</g>
</svg>
