<?xml version="1.0" encoding="iso-8859-1"?>
<!-- Generator: Adobe Illustrator 17.1.0, SVG Export Plug-In . SVG Version: 6.00 Build 0)  -->
<!DOCTYPE svg PUBLIC "-//W3C//DTD SVG 1.1//EN" "http://www.w3.org/Graphics/SVG/1.1/DTD/svg11.dtd">
<svg version="1.1" id="Capa_1" xmlns="http://www.w3.org/2000/svg" xmlns:xlink="http://www.w3.org/1999/xlink" x="0px" y="0px"
	 viewBox="0 0 442 442" style="enable-background:new 0 0 442 442;" xml:space="preserve">
<g fill="#273943">
	<path d="M382,0H60c-5.523,0-10,4.477-10,10v422c0,5.523,4.477,10,10,10h322c5.523,0,10-4.477,10-10V10C392,4.477,387.523,0,382,0z
		 M295,422h-55V279h55V422z M372,422h-57V269c0-5.523-4.477-10-10-10h-75c-5.523,0-10,4.477-10,10v153H70V20h302V422z"/>
	<path d="M103,128h50c5.523,0,10-4.477,10-10V53c0-5.523-4.477-10-10-10h-50c-5.523,0-10,4.477-10,10v65
		C93,123.523,97.477,128,103,128z M113,63h30v45h-30V63z"/>
	<path d="M196,128h50c5.523,0,10-4.477,10-10V53c0-5.523-4.477-10-10-10h-50c-5.523,0-10,4.477-10,10v65
		C186,123.523,190.477,128,196,128z M206,63h30v45h-30V63z"/>
	<path d="M289,128h50c5.523,0,10-4.477,10-10V53c0-5.523-4.477-10-10-10h-50c-5.523,0-10,4.477-10,10v65
		C279,123.523,283.477,128,289,128z M299,63h30v45h-30V63z"/>
	<path d="M103,236h50c5.523,0,10-4.477,10-10v-65c0-5.523-4.477-10-10-10h-50c-5.523,0-10,4.477-10,10v65
		C93,231.523,97.477,236,103,236z M113,171h30v45h-30V171z"/>
	<path d="M196,236h50c5.523,0,10-4.477,10-10v-65c0-5.523-4.477-10-10-10h-50c-5.523,0-10,4.477-10,10v65
		C186,231.523,190.477,236,196,236z M206,171h30v45h-30V171z"/>
	<path d="M289,236h50c5.523,0,10-4.477,10-10v-65c0-5.523-4.477-10-10-10h-50c-5.523,0-10,4.477-10,10v65
		C279,231.523,283.477,236,289,236z M299,171h30v45h-30V171z"/>
	<path d="M103,344h50c5.523,0,10-4.477,10-10v-65c0-5.523-4.477-10-10-10h-50c-5.523,0-10,4.477-10,10v65
		C93,339.523,97.477,344,103,344z M113,279h30v45h-30V279z"/>
</g>
<g>
</g>
<g>
</g>
<g>
</g>
<g>
</g>
<g>
</g>
<g>
</g>
<g>
</g>
<g>
</g>
<g>
</g>
<g>
</g>
<g>
</g>
<g>
</g>
<g>
</g>
<g>
</g>
<g>
</g>
</svg>
