<?xml version="1.0" encoding="iso-8859-1"?>
<!-- Generator: Adobe Illustrator 17.1.0, SVG Export Plug-In . SVG Version: 6.00 Build 0)  -->
<!DOCTYPE svg PUBLIC "-//W3C//DTD SVG 1.1//EN" "http://www.w3.org/Graphics/SVG/1.1/DTD/svg11.dtd">
<svg version="1.1" id="Capa_1" xmlns="http://www.w3.org/2000/svg" xmlns:xlink="http://www.w3.org/1999/xlink" x="0px" y="0px"
	 viewBox="0 0 442 442" style="enable-background:new 0 0 442 442;" xml:space="preserve">
<g fill="#273943">
	<path d="M166.604,135.904h108.791c5.522,0,10-4.477,10-10V63.819c0-5.523-4.478-10-10-10H166.604c-5.522,0-10,4.477-10,10v62.085
		C156.604,131.427,161.082,135.904,166.604,135.904z M176.604,73.819h88.791v42.085h-88.791V73.819z"/>
	<path d="M275.396,306.096H166.604c-5.522,0-10,4.477-10,10v62.085c0,5.523,4.478,10,10,10h108.791c5.522,0,10-4.477,10-10v-62.085
		C285.396,310.573,280.918,306.096,275.396,306.096z M265.396,368.181h-88.791v-42.085h88.791V368.181z"/>
	<path d="M432,306.096H323.209c-5.522,0-10,4.477-10,10v62.085c0,5.523,4.478,10,10,10H432c5.522,0,10-4.477,10-10v-62.085
		C442,310.573,437.522,306.096,432,306.096z M422,368.181h-88.791v-42.085H422V368.181z"/>
	<path d="M118.791,306.096H10c-5.522,0-10,4.477-10,10v62.085c0,5.523,4.478,10,10,10h108.791c5.522,0,10-4.477,10-10v-62.085
		C128.791,310.573,124.313,306.096,118.791,306.096z M108.791,368.181H20v-42.085h88.791V368.181z"/>
	<path d="M211,250.5v35.596c0,5.523,4.478,10,10,10s10-4.477,10-10V250.5c0-5.523-4.478-10-10-10S211,244.977,211,250.5z"/>
	<path d="M64.396,296.096c5.522,0,10-4.477,10-10V231h293.209v55.096c0,5.523,4.478,10,10,10s10-4.477,10-10V221
		c0-5.523-4.478-10-10-10H231v-55.096c0-5.523-4.478-10-10-10s-10,4.477-10,10V211H64.396c-5.522,0-10,4.477-10,10v65.096
		C54.396,291.619,58.873,296.096,64.396,296.096z"/>
</g>
<g>
</g>
<g>
</g>
<g>
</g>
<g>
</g>
<g>
</g>
<g>
</g>
<g>
</g>
<g>
</g>
<g>
</g>
<g>
</g>
<g>
</g>
<g>
</g>
<g>
</g>
<g>
</g>
<g>
</g>
</svg>
