<?xml version="1.0" encoding="iso-8859-1"?>
<!-- Generator: Adobe Illustrator 17.1.0, SVG Export Plug-In . SVG Version: 6.00 Build 0)  -->
<!DOCTYPE svg PUBLIC "-//W3C//DTD SVG 1.1//EN" "http://www.w3.org/Graphics/SVG/1.1/DTD/svg11.dtd">
<svg version="1.1" id="Capa_1" xmlns="http://www.w3.org/2000/svg" xmlns:xlink="http://www.w3.org/1999/xlink" x="0px" y="0px"
	 viewBox="0 0 442 442" style="enable-background:new 0 0 442 442;" xml:space="preserve">
<g fill="#273943">
	<path d="M331,0H111c-5.522,0-10,4.478-10,10v422c0,5.522,4.478,10,10,10h220c5.522,0,10-4.478,10-10V10C341,4.478,336.522,0,331,0z
		 M321,20v191H121V20H321z M121,422V231h200v191H121z"/>
	<path d="M201,60h40c5.522,0,10-4.478,10-10s-4.478-10-10-10h-40c-5.522,0-10,4.478-10,10S195.478,60,201,60z"/>
	<path d="M201,271h40c5.522,0,10-4.478,10-10s-4.478-10-10-10h-40c-5.522,0-10,4.478-10,10S195.478,271,201,271z"/>
	<path d="M251,291h-60c-5.522,0-10,4.478-10,10v40c0,5.522,4.478,10,10,10h60c5.522,0,10-4.478,10-10v-40
		C261,295.478,256.522,291,251,291z M241,331h-40v-20h40V331z"/>
	<path d="M191,140h60c5.522,0,10-4.478,10-10V90c0-5.522-4.478-10-10-10h-60c-5.522,0-10,4.478-10,10v40
		C181,135.522,185.478,140,191,140z M201,100h40v20h-40V100z"/>
</g>
<g>
</g>
<g>
</g>
<g>
</g>
<g>
</g>
<g>
</g>
<g>
</g>
<g>
</g>
<g>
</g>
<g>
</g>
<g>
</g>
<g>
</g>
<g>
</g>
<g>
</g>
<g>
</g>
<g>
</g>
</svg>
