<?xml version="1.0" encoding="iso-8859-1"?>
<!-- Generator: Adobe Illustrator 17.1.0, SVG Export Plug-In . SVG Version: 6.00 Build 0)  -->
<!DOCTYPE svg PUBLIC "-//W3C//DTD SVG 1.1//EN" "http://www.w3.org/Graphics/SVG/1.1/DTD/svg11.dtd">
<svg version="1.1" id="Capa_1" xmlns="http://www.w3.org/2000/svg" xmlns:xlink="http://www.w3.org/1999/xlink" x="0px" y="0px"
	 viewBox="0 0 442 442" style="enable-background:new 0 0 442 442;" xml:space="preserve">
<g fill="#273943">
	<path d="M432,383.991H58.009V10c0-5.523-4.478-10-10-10s-10,4.477-10,10v373.991H10c-5.522,0-10,4.477-10,10s4.478,10,10,10h28.009
		V432c0,5.523,4.478,10,10,10s10-4.477,10-10v-28.009H432c5.522,0,10-4.477,10-10S437.522,383.991,432,383.991z"/>
	<path d="M112.034,363.991c18.762,0,34.025-15.264,34.025-34.025c0-7.414-2.391-14.276-6.432-19.872l57.969-70.329
		c3.999,1.655,8.376,2.573,12.966,2.573c8.642,0,16.536-3.244,22.544-8.571l43.007,26.218c-0.684,2.685-1.049,5.496-1.049,8.391
		c0,18.762,15.264,34.025,34.025,34.025s34.025-15.264,34.025-34.025c0-9.864-4.223-18.757-10.951-24.977l69.884-145.678
		c1.814,0.3,3.673,0.464,5.57,0.464c18.762,0,34.025-15.264,34.025-34.025s-15.264-34.025-34.025-34.025
		s-34.025,15.264-34.025,34.025c0,9.673,4.064,18.41,10.567,24.611l-70.019,145.958c-1.649-0.246-3.335-0.377-5.051-0.377
		c-8.642,0-16.536,3.244-22.544,8.571l-43.007-26.218c0.684-2.685,1.049-5.496,1.049-8.391c0-18.762-15.264-34.026-34.025-34.026
		s-34.025,15.264-34.025,34.026c0,6.913,2.078,13.347,5.634,18.722l-58.489,70.96c-3.635-1.329-7.558-2.055-11.648-2.055
		c-18.762,0-34.025,15.264-34.025,34.026S93.272,363.991,112.034,363.991z M407.618,50.134c7.733,0,14.025,6.292,14.025,14.025
		s-6.292,14.025-14.025,14.025s-14.025-6.292-14.025-14.025S399.885,50.134,407.618,50.134z M309.09,254.351
		c7.733,0,14.025,6.292,14.025,14.025s-6.292,14.025-14.025,14.025s-14.025-6.292-14.025-14.025S301.356,254.351,309.09,254.351z
		 M210.563,194.287c7.733,0,14.025,6.292,14.025,14.026c0,7.733-6.292,14.025-14.025,14.025s-14.025-6.292-14.025-14.025
		C196.537,200.579,202.829,194.287,210.563,194.287z M112.034,315.94c7.733,0,14.025,6.292,14.025,14.026
		c0,7.733-6.292,14.025-14.025,14.025s-14.025-6.292-14.025-14.025C98.009,322.232,104.301,315.94,112.034,315.94z"/>
</g>
<g>
</g>
<g>
</g>
<g>
</g>
<g>
</g>
<g>
</g>
<g>
</g>
<g>
</g>
<g>
</g>
<g>
</g>
<g>
</g>
<g>
</g>
<g>
</g>
<g>
</g>
<g>
</g>
<g>
</g>
</svg>
