<?xml version="1.0" encoding="iso-8859-1"?>
<!-- Generator: Adobe Illustrator 17.1.0, SVG Export Plug-In . SVG Version: 6.00 Build 0)  -->
<!DOCTYPE svg PUBLIC "-//W3C//DTD SVG 1.1//EN" "http://www.w3.org/Graphics/SVG/1.1/DTD/svg11.dtd">
<svg version="1.1" id="Capa_1" xmlns="http://www.w3.org/2000/svg" xmlns:xlink="http://www.w3.org/1999/xlink" x="0px" y="0px"
	 viewBox="0 0 442 442" style="enable-background:new 0 0 442 442;" xml:space="preserve">
<g fill="#273943">
	<path d="M379.91,368.102c0.137-0.177,0.275-0.354,0.4-0.54c0.044-0.067,0.082-0.138,0.125-0.206
		c0.133-0.208,0.264-0.418,0.381-0.637c0.025-0.046,0.044-0.095,0.068-0.141c0.126-0.244,0.246-0.49,0.352-0.745
		c0.013-0.03,0.022-0.063,0.034-0.093c0.109-0.27,0.21-0.544,0.296-0.826c0.01-0.034,0.016-0.068,0.026-0.102
		c0.081-0.277,0.155-0.557,0.212-0.843c0.017-0.084,0.024-0.17,0.039-0.254c0.041-0.237,0.083-0.474,0.107-0.717
		c0.033-0.33,0.05-0.663,0.05-0.998V10c0-5.522-4.478-10-10-10H70c-5.522,0-10,4.478-10,10v422c0,5.522,4.478,10,10,10h232
		c0.335,0,0.668-0.017,0.998-0.05c0.247-0.024,0.489-0.067,0.73-0.109c0.08-0.014,0.161-0.021,0.24-0.037
		c0.287-0.058,0.567-0.131,0.845-0.212c0.033-0.01,0.068-0.016,0.101-0.026c0.281-0.086,0.556-0.187,0.826-0.296
		c0.031-0.013,0.063-0.021,0.093-0.034c0.255-0.106,0.501-0.226,0.745-0.352c0.047-0.024,0.095-0.043,0.141-0.068
		c0.22-0.119,0.432-0.25,0.642-0.384c0.066-0.042,0.135-0.078,0.2-0.122c0.188-0.125,0.365-0.264,0.543-0.402
		c0.081-0.063,0.166-0.118,0.245-0.183c0.183-0.15,0.355-0.313,0.526-0.477c0.064-0.061,0.133-0.115,0.196-0.177l70-70
		c0.063-0.063,0.116-0.132,0.177-0.196c0.163-0.172,0.326-0.343,0.477-0.526C379.791,368.27,379.847,368.184,379.91,368.102z M80,20
		h282v332h-60c-5.522,0-10,4.478-10,10v60H80V20z M347.857,372L312,407.857V372H347.857z"/>
	<path d="M176.14,227.535c-4.358-3.388-10.642-2.606-14.033,1.754l-25.8,33.172l-10.09-8.008c-4.328-3.434-10.617-2.711-14.05,1.616
		c-3.434,4.326-2.709,10.616,1.616,14.05l18,14.285c1.777,1.41,3.971,2.167,6.217,2.167c0.396,0,0.794-0.023,1.191-0.071
		c2.65-0.318,5.063-1.683,6.702-3.789l32-41.143C181.284,237.209,180.499,230.926,176.14,227.535z"/>
	<path d="M176.14,157.535c-4.358-3.389-10.642-2.605-14.033,1.754l-25.8,33.172l-10.09-8.008c-4.328-3.435-10.617-2.71-14.05,1.616
		c-3.434,4.326-2.709,10.616,1.616,14.05l18,14.285c1.777,1.41,3.971,2.167,6.217,2.167c0.396,0,0.794-0.023,1.191-0.071
		c2.65-0.318,5.063-1.683,6.702-3.789l32-41.143C181.284,167.209,180.499,160.926,176.14,157.535z"/>
	<path d="M176.14,87.535c-4.358-3.388-10.642-2.606-14.033,1.754l-25.8,33.172l-10.09-8.008c-4.328-3.434-10.617-2.71-14.05,1.616
		c-3.434,4.326-2.709,10.616,1.616,14.05l18,14.285c1.777,1.41,3.971,2.167,6.217,2.167c0.396,0,0.794-0.023,1.191-0.071
		c2.65-0.318,5.063-1.683,6.702-3.789l32-41.143C181.284,97.209,180.499,90.926,176.14,87.535z"/>
	<path d="M200,126h112c5.522,0,10-4.478,10-10s-4.478-10-10-10H200c-5.522,0-10,4.478-10,10S194.478,126,200,126z"/>
	<path d="M200,196h112c5.522,0,10-4.478,10-10s-4.478-10-10-10H200c-5.522,0-10,4.478-10,10S194.478,196,200,196z"/>
	<path d="M312,266c5.522,0,10-4.478,10-10s-4.478-10-10-10H200c-5.522,0-10,4.478-10,10s4.478,10,10,10H312z"/>
</g>
<g>
</g>
<g>
</g>
<g>
</g>
<g>
</g>
<g>
</g>
<g>
</g>
<g>
</g>
<g>
</g>
<g>
</g>
<g>
</g>
<g>
</g>
<g>
</g>
<g>
</g>
<g>
</g>
<g>
</g>
</svg>
