<?xml version="1.0" encoding="iso-8859-1"?>
<!-- Generator: Adobe Illustrator 17.1.0, SVG Export Plug-In . SVG Version: 6.00 Build 0)  -->
<!DOCTYPE svg PUBLIC "-//W3C//DTD SVG 1.1//EN" "http://www.w3.org/Graphics/SVG/1.1/DTD/svg11.dtd">
<svg version="1.1" id="Capa_1" xmlns="http://www.w3.org/2000/svg" xmlns:xlink="http://www.w3.org/1999/xlink" x="0px" y="0px"
	 viewBox="0 0 411.102 411.102" style="enable-background:new 0 0 411.102 411.102;" xml:space="preserve">
<g fill="#273943">
	<path d="M205.551,83.161c22.056,0,40-17.944,40-40s-17.944-40-40-40s-40,17.944-40,40S183.495,83.161,205.551,83.161z
		 M205.551,23.161c11.028,0,20,8.972,20,20s-8.972,20-20,20s-20-8.972-20-20S194.522,23.161,205.551,23.161z"/>
	<path d="M145.551,173.161c5.522,0,10-4.477,10-10c0-27.57,22.43-50,50-50s50,22.43,50,50c0,5.523,4.478,10,10,10s10-4.477,10-10
		c0-38.598-31.402-70-70-70s-70,31.402-70,70C135.551,168.684,140.028,173.161,145.551,173.161z"/>
	<path d="M70,317.941c22.056,0,40-17.944,40-40s-17.944-40-40-40s-40,17.944-40,40S47.944,317.941,70,317.941z M70,257.941
		c11.028,0,20,8.972,20,20s-8.972,20-20,20s-20-8.972-20-20S58.972,257.941,70,257.941z"/>
	<path d="M70,327.941c-38.598,0-70,31.402-70,70c0,5.523,4.478,10,10,10s10-4.477,10-10c0-27.57,22.43-50,50-50s50,22.43,50,50
		c0,5.523,4.478,10,10,10s10-4.477,10-10C140,359.343,108.598,327.941,70,327.941z"/>
	<path d="M341.102,317.941c22.056,0,40-17.944,40-40s-17.944-40-40-40s-40,17.944-40,40S319.046,317.941,341.102,317.941z
		 M341.102,257.941c11.028,0,20,8.972,20,20s-8.972,20-20,20s-20-8.972-20-20S330.073,257.941,341.102,257.941z"/>
	<path d="M341.102,327.941c-38.598,0-70,31.402-70,70c0,5.523,4.478,10,10,10s10-4.477,10-10c0-27.57,22.43-50,50-50s50,22.43,50,50
		c0,5.523,4.478,10,10,10s10-4.477,10-10C411.102,359.343,379.699,327.941,341.102,327.941z"/>
	<path d="M267.708,274.891l-52.157-30.113v-60.227c0-5.523-4.478-10-10-10s-10,4.477-10,10v60.227l-52.157,30.113
		c-4.783,2.761-6.422,8.877-3.66,13.66c2.762,4.783,8.879,6.422,13.66,3.66l52.157-30.113l52.157,30.113
		c1.575,0.909,3.294,1.341,4.99,1.341c3.456,0,6.818-1.793,8.67-5.001C274.13,283.768,272.491,277.652,267.708,274.891z"/>
</g>
<g>
</g>
<g>
</g>
<g>
</g>
<g>
</g>
<g>
</g>
<g>
</g>
<g>
</g>
<g>
</g>
<g>
</g>
<g>
</g>
<g>
</g>
<g>
</g>
<g>
</g>
<g>
</g>
<g>
</g>
</svg>
