<?xml version="1.0" encoding="iso-8859-1"?>
<!-- Generator: Adobe Illustrator 17.1.0, SVG Export Plug-In . SVG Version: 6.00 Build 0)  -->
<!DOCTYPE svg PUBLIC "-//W3C//DTD SVG 1.1//EN" "http://www.w3.org/Graphics/SVG/1.1/DTD/svg11.dtd">
<svg version="1.1" id="Capa_1" xmlns="http://www.w3.org/2000/svg" xmlns:xlink="http://www.w3.org/1999/xlink" x="0px" y="0px"
	 viewBox="0 0 442 442" style="enable-background:new 0 0 442 442;" xml:space="preserve">
<path fill="#273943" d="M440.963,199.509c-4.934-50.777-27.552-98.643-63.688-134.78C335.533,22.988,280.035,0,221.004,0
	S106.475,22.988,64.733,64.729C22.992,106.471,0.004,161.969,0.004,221s22.988,114.529,64.729,156.271
	C106.475,419.012,161.973,442,221.004,442s114.529-22.988,156.271-64.729c1.875-1.875,2.929-4.419,2.929-7.071
	s-1.054-5.196-2.929-7.071l-30.727-30.728c5.458-4.235,8.5-7.777,8.792-8.123c3.05-3.611,3.154-8.865,0.251-12.595
	c-0.612-0.786-15.2-19.467-33.569-37.835c-18.368-18.368-37.049-32.957-37.835-33.568c-3.98-3.099-9.646-2.747-13.214,0.82
	l-21.238,21.238l-70.068-70.068l21.238-21.238c3.567-3.567,3.918-9.233,0.82-13.214c-0.612-0.786-15.2-19.467-33.568-37.835
	c-18.369-18.369-37.049-32.957-37.835-33.569c-3.729-2.903-8.983-2.799-12.595,0.251c-0.841,0.71-20.633,17.727-23.259,46.229
	c-1.833,19.893,2.659,41.612,13.352,64.555c11.974,25.692,31.499,52.173,58.031,78.706c26.533,26.533,53.014,46.057,78.706,58.031
	c22.942,10.692,44.662,15.182,64.555,13.352c7.282-0.671,13.815-2.463,19.517-4.773l27.261,27.261
	c-78.795,71.395-201.015,69.1-277.012-6.897c-78.37-78.37-78.37-205.888,0-284.257c78.37-78.37,205.888-78.37,284.258,0
	c67.023,67.023,77.995,173.098,26.09,252.222c-3.029,4.618-1.742,10.817,2.876,13.847c4.62,3.03,10.818,1.742,13.847-2.876
	C433.393,300.223,445.829,249.596,440.963,199.509z M307.275,327.622c-21.093,1.947-65.67-3.996-127.284-65.609
	c-61.614-61.613-67.553-106.193-65.609-127.284c1.095-11.882,6.522-21.128,10.808-26.729c6.964,5.786,18.044,15.345,28.823,26.124
	c10.92,10.92,20.615,22.184,26.38,29.134l-21.94,21.94c-3.905,3.905-3.905,10.237,0,14.143l84.21,84.21
	c3.905,3.905,10.237,3.905,14.143,0l21.941-21.941c6.942,5.758,18.193,15.442,29.133,26.381
	c10.76,10.76,20.331,21.854,26.125,28.826C328.404,321.102,319.159,326.527,307.275,327.622z"/>
<g>
</g>
<g>
</g>
<g>
</g>
<g>
</g>
<g>
</g>
<g>
</g>
<g>
</g>
<g>
</g>
<g>
</g>
<g>
</g>
<g>
</g>
<g>
</g>
<g>
</g>
<g>
</g>
<g>
</g>
</svg>
